<svg width="211" height="81" viewBox="0 0 211 81" fill="none" xmlns="http://www.w3.org/2000/svg">
<path d="M106.476 79.872C106.044 79.5198 106.214 79.0219 105.758 78.8823C105.698 78.8749 105.561 78.8131 105.51 78.8551C104.53 79.6731 103.429 79.615 102.293 79.3234C101.314 79.0726 100.24 79.269 99.3643 78.4832C98.9887 78.1459 98.3091 78.3584 97.7556 78.4103C97.0192 78.4795 96.2408 78.6302 95.6663 77.9272C95.4402 77.6505 95.0831 77.8469 94.8224 77.7444C94.1564 77.4837 93.3064 77.5911 92.9085 76.7621C92.78 76.4952 92.4662 76.3741 92.14 76.3692C91.0045 76.3519 89.8542 76.1839 88.8436 75.7428C87.6043 75.2028 86.0586 75.3486 85.1134 74.1403C84.3869 74.0463 83.805 73.4755 83.0216 73.5385C82.5966 73.5731 82.0801 73.709 81.896 73.0863C79.698 72.2338 77.8941 70.5077 75.4514 70.1914C74.9967 70.1334 74.5334 69.948 74.2591 69.6021C73.7056 68.9052 72.8555 68.6124 72.2538 67.9192C71.6953 67.2768 70.608 67.0729 69.7283 66.7418C69.2254 66.5515 68.6225 66.5713 68.4372 65.909C67.3412 65.7447 66.8124 64.6487 65.7955 64.3176C65.1432 64.1051 64.6428 63.5441 64.067 63.2081C62.4843 62.2826 61.1375 60.9964 59.4485 60.2526C58.7554 59.9474 58.2686 59.4594 57.7311 58.922C56.7921 57.9829 55.9815 56.7622 54.51 56.4891C54.1406 56.4199 53.8712 56.1716 53.6785 55.885C53.3647 55.4204 53.0792 54.9682 52.4306 54.9484C52.3132 54.9447 52.1205 54.7927 52.0982 54.6828C51.8289 53.3385 50.6489 53.1742 49.6642 52.7874C49.4665 52.3093 49.2342 51.8645 49.3676 51.3356C47.8516 50.362 46.3986 49.4045 44.9678 48.4235C44.0325 47.781 42.986 47.2707 42.2632 46.2168C41.7677 45.4927 41.3341 44.4425 40.1727 44.2263C39.9021 44.1756 39.4128 43.7481 39.5079 43.181C39.566 42.8313 39.3214 42.5781 39.0359 42.499C38.5331 42.3594 38.2365 42.1431 38.3045 41.5674C38.3156 41.4735 38.134 41.3227 38.0117 41.2523C35.952 40.0736 34.5929 38.2697 33.4858 36.231C33.3462 35.9728 33.1226 35.7615 32.9521 35.5193C32.4677 34.8311 31.9995 34.1565 31.677 33.346C31.3681 32.5701 31.032 31.6805 30.0152 31.4012C29.6124 31.29 29.4246 30.8502 29.4159 30.4338C29.406 29.9828 29.1861 29.6776 28.876 29.4108C27.5601 28.2802 26.9028 26.7123 26.1133 25.2371C25.7587 24.5748 25.5363 23.8372 24.8666 23.3887C24.7455 23.3084 24.6393 23.1861 24.5651 23.06C22.5228 19.6474 20.4841 16.2311 18.4479 12.8148C18.3726 12.6876 18.3207 12.5455 18.2663 12.4059C17.9969 11.7177 17.8882 10.9751 17.4385 10.3437C17.0122 9.74448 16.6798 9.07851 16.2993 8.42985C15.3615 8.64483 14.9575 9.48254 14.3521 10.0435C13.9023 10.4599 13.1412 10.6365 12.9781 11.1654C12.7817 11.8017 12.2405 12.2391 12.1627 12.8988C12.1293 13.1805 11.8797 13.288 11.7302 13.4783C11.1297 14.2456 10.5836 15.0524 10.0437 15.8617C9.31472 16.9539 8.92799 18.2043 8.14712 19.2619C7.38972 20.2899 6.746 21.4106 6.07757 22.5053C5.53763 23.3887 4.80371 24.1584 4.26995 25.069C3.85975 25.7671 3.34576 25.8944 2.6069 25.6584C1.74695 25.3841 1.57027 25.1889 1.6827 24.1584C1.76054 23.448 1.07728 23.2898 0.883301 22.7413C1.51961 20.6285 2.51176 18.6862 4.20694 17.1467C4.6468 16.7476 4.66657 16.1088 5.00511 15.6035C6.35804 13.5833 7.59235 11.4829 8.81555 9.37875C9.14792 8.80669 9.66438 8.46073 10.0585 7.99369C10.4502 7.53036 10.3946 6.7705 10.8122 6.24292C11.4905 5.38668 12.0354 4.44272 12.6173 3.52223C13.3253 2.40282 14.3014 1.41067 15.4208 0.707643C16.24 0.192417 17.3322 0.0564999 18.2737 0.500063C19.4833 1.06842 20.7003 1.65284 21.6134 2.71171C22.4239 3.65073 23.6496 3.93984 24.727 4.40812C25.3806 4.69229 26.028 5.00736 26.5173 5.44722C27.9382 6.72355 29.7508 7.29931 31.2927 8.32482C33.0139 9.46894 35.0192 10.0126 36.7316 11.1172C38.0846 11.9895 39.3572 12.9989 40.311 14.3346C40.4235 14.4927 40.5211 14.6842 40.5507 14.8733C40.6236 15.3242 39.5475 17.096 39.1224 17.3172C38.6171 17.5816 38.1426 17.5507 37.7435 17.1553C36.5797 16.0013 35.0031 15.5355 33.6563 14.6892C32.9373 14.2369 32.2614 13.7094 31.3162 13.6315C30.7133 13.5821 30.4167 12.8717 30.1202 12.3663C29.7668 11.7634 29.1972 11.4261 28.6363 11.5842C27.4885 11.9079 26.8472 11.0616 26.0021 10.686C25.9626 10.6687 25.949 10.5822 25.9107 10.5711C24.2241 10.0954 23.0195 8.71526 21.4417 8.10366C20.9697 8.44961 21.3576 8.65966 21.4602 8.89318C22.1496 10.466 22.5302 12.1773 23.8127 13.4746C24.3119 13.9799 24.7171 14.6422 24.9568 15.3786C25.1051 15.8345 25.3423 16.2904 25.734 16.6426C25.9885 16.8711 26.3073 17.1813 26.3394 17.4815C26.5087 19.0717 27.937 19.9761 28.4028 21.397C28.4893 21.6601 28.7388 21.906 28.9736 22.079C30.0411 22.871 30.3895 24.1102 30.8356 25.2395C31.0308 25.7325 31.2198 26.1699 31.6276 26.4121C32.6444 27.0163 33.2437 27.896 33.4846 29.0117C33.602 29.5553 33.896 29.8926 34.3174 30.1867C34.9166 30.6043 35.286 31.2208 35.5332 31.8695C35.7518 32.4403 35.9434 32.984 36.4648 33.3509C36.5821 33.4337 36.7675 33.6042 36.7428 33.6784C36.3523 34.8843 37.4445 35.098 38.0561 35.5095C39.6933 36.6116 40.8695 38.135 42.1026 39.6164C42.4498 40.0328 42.9514 40.3343 43.2652 40.6926C44.355 41.9393 45.7166 42.8425 46.9101 43.9458C47.371 44.3721 47.5884 45.0578 48.3273 45.1863C48.4484 45.2073 48.5818 45.3655 48.6424 45.4915C49.165 46.5775 50.2016 47.0891 51.1159 47.739C51.8894 48.2888 52.4849 49.0326 53.2361 49.6195C54.9548 50.9625 56.7723 52.2042 58.1759 53.9155C58.2611 54.0205 58.4366 54.0489 58.5651 54.1206C59.4782 54.6321 60.2158 55.3067 60.8299 56.1765C61.5193 57.1526 62.7091 57.5381 63.6407 58.2362C63.8113 58.3635 64.0868 58.4005 64.282 58.5661C64.9826 59.1629 65.5744 59.9635 66.6518 59.8857C67.3116 60.7691 68.5224 60.8025 69.2539 61.5524C70.0743 62.3938 71.1541 62.7744 72.1525 63.2958C74.4506 64.4955 76.7302 65.7311 78.8739 67.1915C79.2544 67.451 79.6622 67.6227 80.0699 67.7944C81.7552 68.5037 83.4911 69.1091 84.9083 70.3298C85.0195 70.4262 85.1604 70.53 85.2975 70.546C87.2225 70.7721 88.9165 71.7705 90.7858 72.1844C91.9942 72.4513 93.2199 72.7033 94.3801 73.1209C96.7795 73.9858 99.2741 74.4664 101.749 74.9915C104.016 75.4722 106.369 75.5512 108.628 76.0541C109.958 76.3507 111.229 76.048 112.532 76.169C114.609 76.3618 116.711 76.4334 118.793 76.3358C120.199 76.2703 121.608 75.996 123.02 76.0862C125.018 76.2123 126.976 75.6662 128.972 75.8095C129.312 75.8342 129.663 75.7045 130.007 75.6452C130.351 75.5846 130.703 75.4413 131.038 75.4747C133.396 75.7094 135.608 74.8457 137.899 74.5875C139.035 74.459 140.187 74.4034 141.309 74.1934C143.14 73.8499 145.012 73.8128 146.814 73.1901C148.277 72.6835 149.848 72.45 151.39 72.219C152.492 72.0546 153.51 71.7334 154.523 71.2898C156.207 70.5534 157.928 69.9011 159.627 69.1968C160.824 68.7013 161.998 68.1355 163.347 68.2281C164.041 67.4621 165.159 67.5412 165.925 66.953C167.662 65.6211 169.667 64.6809 171.355 63.2995C172.358 62.4779 173.572 62.0096 174.537 61.141C175.047 60.6814 175.636 60.2922 176.31 60.0512C176.929 59.8301 177.496 59.5138 177.708 58.8046C177.801 58.4957 178.097 58.4018 178.351 58.2362C179.429 57.5357 180.678 57.0649 181.499 56.0036C181.899 55.4859 182.515 55.6823 182.989 55.5365C184.275 54.1873 185.341 52.67 186.871 51.6136C187.308 51.3109 187.394 50.6919 187.785 50.4547C189.12 49.6504 189.762 48.1665 191.055 47.309C191.732 46.8592 192.222 46.1031 192.735 45.4371C193.046 45.0319 193.348 44.7329 193.852 44.5216C194.561 44.2238 195.283 43.8445 195.421 42.8857C195.473 42.5286 195.758 42.116 196.06 41.8973C197.764 40.6642 198.331 38.5378 199.862 37.1626C200.439 36.6449 200.841 35.9407 201.133 35.1709C201.594 33.9502 202.601 33.0593 203.271 31.9535C203.461 31.6385 203.73 31.3481 203.939 31.0108C204.987 29.3193 206.205 27.7551 207.703 26.4331C208.036 26.139 208.427 25.887 208.829 25.6979C209.315 25.4706 209.96 25.7486 210.174 26.2564C210.368 26.7136 210.526 27.1917 210.646 27.6736C210.971 28.9734 210.078 29.8185 209.406 30.7019C208.335 32.1067 206.976 33.3139 206.536 35.1277C206.477 35.3735 206.369 35.6058 206.146 35.7492C205.608 36.0939 205.401 36.6598 205.13 37.1948C204.862 37.7248 204.518 38.2091 204.18 38.7009C202.765 40.7519 201.182 42.6707 199.673 44.6464C198.828 45.7522 197.968 46.8555 196.811 47.6834C196.496 47.9095 196.243 48.2554 196.036 48.594C195.461 49.5367 194.748 50.2941 193.887 51.0255C192.892 51.8706 192.011 52.9073 191.123 53.8982C190.358 54.752 189.395 55.3388 188.492 56.0048C187.892 56.4471 187.265 56.7956 186.909 57.5381C186.563 58.2597 185.917 58.7996 185.187 59.1579C184.469 59.5101 183.886 59.9858 183.314 60.5504C182.65 61.2077 181.816 61.6921 181.018 62.2048C180.19 62.7361 179.251 63.1537 178.634 63.9791C178.478 64.1866 178.282 64.3337 178.026 64.3868C176.742 64.6524 175.805 65.4481 174.978 66.3995C174.784 66.6231 174.68 66.9333 174.38 67.0519C172.712 67.7129 171.441 69.1103 169.67 69.5848C169.45 69.6441 169.278 69.8788 169.084 70.032C168.888 70.1865 168.692 70.4707 168.495 70.4719C167.268 70.4793 166.499 71.4925 165.417 71.8137C164.319 72.1399 163.247 72.56 162.17 72.9529C161.749 73.1073 161.324 73.2679 160.936 73.4891C160.627 73.6646 160.315 73.9154 159.979 73.8857C159.064 73.8029 158.356 74.2823 157.618 74.6641C156.063 75.4697 154.421 75.9849 152.697 76.2592C152.454 76.2975 152.201 76.3643 151.964 76.3358C151.519 76.2815 151.098 76.132 150.834 76.7028C150.697 77.0005 150.315 76.9771 150.028 77.0179C148.618 77.2193 147.293 77.9297 145.814 77.7147C145.772 77.7085 145.722 77.7505 145.675 77.7703C143.768 78.5833 141.683 78.5845 139.69 78.9601C138.11 79.2567 136.486 79.5545 134.835 79.552C133.856 79.5507 132.875 79.8658 131.896 80.0351C130.064 80.3526 128.229 80.3341 126.393 80.3044C125.515 80.2908 124.657 80.4984 123.736 80.2439C122.924 80.0202 121.992 80.4465 121.104 80.192C120.863 80.1228 120.647 80.3415 120.426 80.4601C119.931 80.7245 119.399 80.9148 118.85 80.6516C118.195 80.3366 117.587 80.7665 116.936 80.7109C115.599 80.5973 114.25 80.638 112.908 80.5688C111.526 80.4984 110.147 80.3724 108.767 80.2686C108.617 80.2575 108.389 80.281 108.334 80.1982C107.825 79.4297 107.09 79.8646 106.476 79.872Z" fill="#2A64F6"/>
</svg>
